HIERARCHY
ROOT Hips
{
 OFFSET 0.000000 0.000000 0.000000
 CHANNELS 6 Xposition Yposition Zposition Yrotation Xrotation Zrotation
 JOINT Chest
 {
  OFFSET 0.000000 9.585900 0.002600
  CHANNELS 3 Yrotation Xrotation Zrotation
  JOINT Chest2
  {
   OFFSET 0.000000 9.601200 -0.005300
   CHANNELS 3 Yrotation Xrotation Zrotation
   JOINT Chest3
   {
    OFFSET 0.000000 9.561800 0.000000
    CHANNELS 3 Yrotation Xrotation Zrotation
    JOINT Chest4
    {
     OFFSET 0.000000 9.552100 0.000000
     CHANNELS 3 Yrotation Xrotation Zrotation
     JOINT Neck
     {
      OFFSET 0.000000 14.453000 0.000000
      CHANNELS 3 Yrotation Xrotation Zrotation
      JOINT Head
      {
       OFFSET 0.000000 8.936500 -0.011300
       CHANNELS 3 Yrotation Xrotation Zrotation
       End Site
       {
        OFFSET 0.000000 17.073600 -0.006000
       }
      }
     }
     JOINT RightCollar
     {
      OFFSET -2.921100 9.558500 0.000000
      CHANNELS 3 Yrotation Xrotation Zrotation
      JOINT RightShoulder
      {
       OFFSET -13.519700 0.000000 0.000000
       CHANNELS 3 Yrotation Xrotation Zrotation
       JOINT RightElbow
       {
        OFFSET 0.000000 -29.696600 0.000000
        CHANNELS 3 Yrotation Xrotation Zrotation
        JOINT RightWrist
        {
         OFFSET 0.000000 -24.004700 0.000000
         CHANNELS 3 Yrotation Xrotation Zrotation
         End Site
         {
          OFFSET 0.000000 -17.728500 0.000000
         }
        }
       }
      }
     }
     JOINT LeftCollar
     {
      OFFSET 2.921100 9.558500 0.000000
      CHANNELS 3 Yrotation Xrotation Zrotation
      JOINT LeftShoulder
      {
       OFFSET 13.519700 0.000000 0.000000
       CHANNELS 3 Yrotation Xrotation Zrotation
       JOINT LeftElbow
       {
        OFFSET 0.000000 -29.696600 0.000000
        CHANNELS 3 Yrotation Xrotation Zrotation
        JOINT LeftWrist
        {
         OFFSET 0.000000 -24.004700 0.000000
         CHANNELS 3 Yrotation Xrotation Zrotation
         End Site
         {
          OFFSET 0.000000 -17.728500 0.000000
         }
        }
       }
      }
     }
    }
   }
  }
 }
 JOINT RightHip
 {
  OFFSET -7.771700 -0.012900 -0.001300
  CHANNELS 3 Yrotation Xrotation Zrotation
  JOINT RightKnee
  {
   OFFSET 0.000000 -40.869800 0.001200
   CHANNELS 3 Yrotation Xrotation Zrotation
   JOINT RightAnkle
   {
    OFFSET 0.000000 -39.717900 0.002100
    CHANNELS 3 Yrotation Xrotation Zrotation
    JOINT RightToe
    {
     OFFSET 0.000000 -4.965400 11.033500
     CHANNELS 3 Yrotation Xrotation Zrotation
     End Site
     {
      OFFSET 0.000000 -1.423100 5.872300
     }
    }
   }
  }
 }
 JOINT LeftHip
 {
  OFFSET 7.771700 -0.012900 -0.001300
  CHANNELS 3 Yrotation Xrotation Zrotation
  JOINT LeftKnee
  {
   OFFSET 0.000000 -40.869800 0.001200
   CHANNELS 3 Yrotation Xrotation Zrotation
   JOINT LeftAnkle
   {
    OFFSET 0.000000 -39.717900 0.002100
    CHANNELS 3 Yrotation Xrotation Zrotation
    JOINT LeftToe
    {
     OFFSET 0.000000 -4.965400 11.033500
     CHANNELS 3 Yrotation Xrotation Zrotation
     End Site
     {
      OFFSET 0.000000 -1.423100 5.872300
     }
    }
   }
  }
 }
}
MOTION
Frames: 11
Frame Time: 0.008333
0.000000 85.388000 0.000000 0.000000 -5.767877 0.000000 0.000000 11.653817 0.000000 0.000000 -5.885947 0.000000 0.000000 -0.000000 0.000000 0.000000 -0.000000 0.000000 0.000000 12.528835 0.000000 0.000000 0.711642 0.000000 0.000000 -0.000000 0.000000 0.000000 0.000000 -90.000000 0.000000 -2.309062 0.000000 0.000000 2.309062 0.000000 0.000000 -0.000000 0.000000 0.000000 -0.000000 90.000000 0.000000 -2.309062 0.000000 0.000000 2.309062 0.000000 0.000000 8.520406 0.000000 0.000000 1.905762 0.000000 -0.000000 -4.658285 0.000000 0.000000 -0.000000 0.000000 0.000000 8.520406 0.000000 0.000000 1.905762 0.000000 -0.000000 -4.658285 0.000000 0.000000 -0.000000 0.000000
-58.541425 46.970177 3.960281 168.508974 -30.101462 -4.224592 -0.857019 19.281018 2.505955 -0.325746 2.345897 0.296531 -0.529719 3.859737 0.481129 -2.101162 16.700865 1.861846 -9.892727 19.419861 0.117639 -18.100512 0.840475 3.202609 -0.178396 3.589449 -3.237795 -8.540152 -13.865083 -14.886444 -78.535302 -51.704446 118.413405 -7.149315 -6.600985 -11.707619 -0.738050 0.861857 1.332591 4.210104 -10.371289 12.181561 71.061123 -50.051705 -109.347893 8.585544 -4.728328 8.285899 -1.732979 -56.511314 0.349627 -148.924824 80.646948 -138.977556 -9.383042 -11.614136 -6.129752 0.231483 -0.539324 -0.038745 -7.574942 -57.994894 21.422695 -140.117363 82.917257 -142.271267 8.134075 -9.442028 1.574006 -0.147923 0.385355 -0.244911
-58.518757 46.970962 3.942645 168.367939 -30.145209 -4.213388 -0.787027 19.327554 2.524853 -0.326532 2.349479 0.295922 -0.602770 3.879988 0.463137 -2.109585 16.720774 1.846153 -9.816507 19.508773 0.086080 -17.944820 0.991171 3.111387 -0.156939 3.616265 -3.197589 -8.441764 -13.778811 -14.955718 -78.619475 -52.052430 118.462577 -7.056439 -6.491664 -11.762771 -0.775888 0.887959 1.247301 4.087650 -10.420922 12.257528 70.940049 -50.355833 -108.940472 8.468388 -4.555597 8.695517 -1.809821 -56.470467 0.504225 -148.987259 80.654356 -139.027011 -9.365847 -11.616116 -6.181083 0.246962 -0.549341 -0.036493 -7.715257 -57.906196 21.584366 -140.495358 82.881828 -142.634349 8.222719 -9.513230 1.458933 -0.146242 0.395999 -0.243649
-58.495000 46.971073 3.924848 168.240591 -30.175826 -4.206149 -0.732392 19.362391 2.540222 -0.326963 2.352648 0.295198 -0.666008 3.898727 0.446318 -2.119002 16.738456 1.827071 -9.738695 19.586425 0.057758 -17.788298 1.121655 3.027233 -0.129167 3.641582 -3.151850 -8.264013 -13.661922 -14.998987 -78.652634 -52.452847 118.396783 -6.958462 -6.360178 -11.897861 -0.812187 0.918592 1.161652 3.919746 -10.463166 12.334711 70.762843 -50.650925 -108.456298 8.311773 -4.269994 9.246630 -1.867569 -56.442125 0.642866 -148.991581 80.653347 -139.007182 -9.356846 -11.622629 -6.246136 0.275329 -0.560309 -0.030994 -7.848655 -57.831468 21.731800 -140.846443 82.846124 -142.962104 8.296753 -9.590011 1.366109 -0.144214 0.410336 -0.240349
-58.471919 46.970684 3.907776 168.127203 -30.191567 -4.196158 -0.846684 19.409622 2.458331 -0.329841 2.361948 0.291156 -0.569934 3.893089 0.463371 -2.130005 16.754104 1.806455 -9.660428 19.652701 0.033524 -17.633122 1.231839 2.952040 -0.095008 3.668693 -3.100996 -8.027505 -13.527353 -15.019861 -78.594752 -52.870550 118.199316 -6.857676 -6.196892 -12.080039 -0.848987 0.955508 1.080756 3.732100 -10.497769 12.410723 70.505078 -50.900598 -107.904477 8.135931 -3.875501 9.914563 -1.952591 -56.425896 0.782706 -148.991879 80.653801 -138.999974 -9.329755 -11.633402 -6.307263 0.281777 -0.559595 -0.006983 -7.972064 -57.772802 21.856495 -141.142015 82.811157 -143.231797 8.377841 -9.663437 1.271721 -0.138409 0.424747 -0.233628
-58.451227 46.970104 3.891791 168.024691 -30.194162 -4.174761 -0.905262 19.437858 2.396057 -0.331495 2.367387 0.288164 -0.539138 3.893519 0.466904 -2.139624 16.766988 1.785432 -9.583544 19.708442 0.013714 -17.482748 1.323482 2.886780 -0.058958 3.702419 -3.049490 -7.757805 -13.384874 -15.017946 -78.415287 -53.261128 117.878608 -6.754717 -5.992809 -12.296613 -0.886267 0.999061 1.008114 3.546166 -10.516981 12.482716 70.155494 -51.088576 -107.305161 7.967466 -3.410730 10.671523 -2.021466 -56.424130 0.900578 -149.011152 80.659473 -139.039108 -9.294696 -11.641313 -6.292578 0.265451 -0.552506 -0.036929 -8.048631 -57.736362 21.940080 -141.340018 82.769805 -143.390109 8.399562 -9.722609 1.218604 -0.123447 0.424485 -0.215040
-58.430938 46.969875 3.877644 167.986226 -30.184039 -4.183337 -0.924469 19.438615 2.388335 -0.332003 2.369181 0.286880 -0.599120 3.912648 0.445574 -2.145871 16.778348 1.764378 -9.510067 19.752410 -0.001948 -17.340835 1.394488 2.831587 -0.023402 3.738964 -2.998808 -7.481448 -13.240185 -14.993608 -78.089060 -53.587692 117.445533 -6.651859 -5.746909 -12.545274 -0.924591 1.042208 0.945167 3.373718 -10.513171 12.545933 69.721961 -51.211446 -106.684685 7.831127 -2.930339 11.469779 -2.058781 -56.431799 0.955310 -148.894160 80.643796 -138.863856 -9.325069 -11.653236 -6.365952 0.324027 -0.556065 0.005853 -8.214044 -57.700597 22.033198 -141.636487 82.745522 -143.663923 8.474993 -9.791664 1.104282 -0.116301 0.446337 -0.208483
-58.414141 46.970491 3.863727 167.920353 -30.176447 -4.157203 -1.012148 19.465091 2.301975 -0.252428 2.349500 0.312785 -0.650129 3.936082 0.423736 -2.149085 16.790451 1.743885 -9.442095 19.781738 -0.013677 -17.211286 1.439799 2.787101 0.008819 3.770669 -2.945443 -7.215551 -13.095377 -14.953974 -77.607032 -53.826307 116.914372 -6.557040 -5.476863 -12.822341 -0.968203 1.079043 0.895288 3.217699 -10.486558 12.595488 69.234235 -51.259577 -106.070483 7.733092 -2.480716 12.246495 -2.122109 -56.435383 1.021612 -148.872037 80.645041 -138.840119 -9.299727 -11.668307 -6.418931 0.310709 -0.544854 0.046150 -8.346009 -57.660279 22.092393 -142.015583 82.740125 -144.035460 8.580813 -9.844028 0.998421 -0.139882 0.457211 -0.215857
-58.395154 46.972428 3.851251 167.805483 -30.176657 -4.121110 -1.039751 19.501365 2.235937 -0.305907 2.370235 0.290784 -0.569163 3.920066 0.445002 -2.151175 16.804125 1.724064 -9.364683 19.782722 -0.013516 -17.109673 1.466007 2.743622 0.039346 3.794495 -2.888264 -6.967994 -12.947880 -14.909319 -76.984950 -53.963076 116.310418 -6.484483 -5.217680 -13.113648 -1.016820 1.108548 0.858882 3.074014 -10.436154 12.627237 68.724747 -51.229375 -105.482329 7.668398 -2.098577 12.944909 -2.223461 -56.426319 1.164050 -148.904272 80.666346 -138.937680 -9.198654 -11.688607 -6.419157 0.223189 -0.520873 0.010343 -8.410149 -57.626567 22.156395 -142.337752 82.728498 -144.335615 8.679990 -9.872924 0.941509 -0.158998 0.445359 -0.239522
-58.373949 46.973240 3.844488 167.738601 -30.151507 -4.129678 -1.071835 19.511298 2.213640 -0.333238 2.383372 0.278242 -0.542058 3.918660 0.450290 -2.153463 16.818480 1.704899 -9.259788 19.746624 0.004953 -17.069291 1.476525 2.719621 0.075046 3.812332 -2.830697 -6.741227 -12.797142 -14.863867 -76.253685 -54.003576 115.661933 -6.444310 -5.002153 -13.403308 -1.061685 1.129821 0.830560 2.932117 -10.356253 12.639429 68.222265 -51.132270 -104.933165 7.637047 -1.808284 13.518504 -2.255661 -56.450303 1.251687 -148.806013 80.668728 -138.795122 -9.199364 -11.696301 -6.485520 0.248741 -0.514549 0.032147 -8.550414 -57.615688 22.273136 -142.634695 82.708707 -144.603313 8.741664 -9.909024 0.839001 -0.135933 0.438151 -0.185243
-58.353524 46.974072 3.839919 167.652424 -30.124539 -4.127133 -1.085637 19.520319 2.192859 -0.333705 2.387693 0.276102 -0.492846 3.901934 0.462695 -2.154649 16.825625 1.695497 -9.261939 19.767841 -0.019087 -16.987387 1.448155 2.718182 0.061985 3.854722 -2.783946 -6.529724 -12.642428 -14.814908 -75.466539 -53.972106 115.006454 -6.437604 -4.842977 -13.686411 -1.150072 1.171973 0.800369 2.782380 -10.248883 12.631346 67.747951 -50.991138 -104.427648 7.642614 -1.617194 13.940941 -2.333749 -56.469683 1.372414 -148.721251 80.681233 -138.698657 -9.156175 -11.712301 -6.551650 0.259749 -0.495278 0.058779 -8.668616 -57.610003 22.387651 -142.902217 82.696216 -144.845090 8.813855 -9.931033 0.738362 -0.132698 0.430131 -0.164048
